<svg width="64" height="64" viewBox="0 0 64 64" fill="none" xmlns="http://www.w3.org/2000/svg">
  <defs>
    <filter id="neu-dark" x="-50%" y="-50%" width="200%" height="200%">
      <feDropShadow dx="2" dy="2" stdDeviation="3" flood-color="#a3b1c6" flood-opacity="0.4"/>
    </filter>
    
    <filter id="neu-light" x="-50%" y="-50%" width="200%" height="200%">
      <feDropShadow dx="-2" dy="-2" stdDeviation="3" flood-color="#ffffff" flood-opacity="1"/>
    </filter>

    <linearGradient id="sun-grad" x1="16" y1="16" x2="48" y2="48" gradientUnits="userSpaceOnUse">
      <stop offset="0%" stop-color="#FDB813"/>
      <stop offset="100%" stop-color="#F59E0B"/>
    </linearGradient>
  </defs>

  <g filter="url(#neu-dark)">
    <g filter="url(#neu-light)">
      <rect x="4" y="4" width="56" height="56" rx="16" fill="#e0e5ec"/>
    </g>
  </g>

  <circle cx="40" cy="26" r="10" fill="url(#sun-grad)" />

  <g filter="url(#neu-dark)">
    <path d="M42 42H22C18.6863 42 16 39.3137 16 36C16 32.6863 18.6863 30 22 30C22.3 30 22.5 30.1 22.8 30.2C23.6 26.2 27.1 23 31.5 23C36.3 23 40.3 26.5 40.9 31.2C41.2 31.1 41.6 31 42 31C45.3137 31 48 33.6863 48 37C48 40.3137 45.3137 42 42 42Z" fill="#e0e5ec"/>
    <path d="M42 42H22C18.6863 42 16 39.3137 16 36C16 32.6863 18.6863 30 22 30C22.3 30 22.5 30.1 22.8 30.2C23.6 26.2 27.1 23 31.5 23C36.3 23 40.3 26.5 40.9 31.2C41.2 31.1 41.6 31 42 31C45.3137 31 48 33.6863 48 37C48 40.3137 45.3137 42 42 42Z" stroke="white" stroke-width="1.5" stroke-opacity="0.8" clip-path="inset(0 0 50% 50%)"/>
  </g>
</svg>